#!OML:ASF H:\Terrain\Patient Classification 1\Walking\liu\liu.ASF
:FULLY-SPECIFIED
:DEGREES
211
root 9.163352 18.156269 -8.657924 8.823584 0.109136 -6.346978
lowerback -7.851668 2.619595 3.554540
upperback -0.970080 3.076931 4.139058
thorax 3.359796 1.553046 2.585660
lowerneck -17.610340 -7.129133 -15.999940
upperneck 16.325100 -9.044806 16.495050
head 9.364882 -3.709684 7.142586
rclavicle -0.000000 -0.000000
rhumerus -40.592640 13.550020 -90.739555
rradius 58.451359
rwrist -29.927700
rhand -35.817978 -31.610371
rfingers 7.837522
rthumb -6.370254 -64.501358
lclavicle -0.000000 -0.000000
lhumerus -55.861740 -12.123650 106.946182
lradius 29.462730
lwrist 10.859057
lhand -13.928860 -27.367561
lfingers 7.837522
lthumb 14.760240 5.135009
rfemur 11.222970 6.081625 34.554192
rtibia 0.000000
rfoot -13.599080 6.028627
rtoes -8.738158
lfemur -48.360840 -3.323331 -11.490380
ltibia 22.744040
lfoot -18.759840 17.050550
ltoes -16.529810
212
root 9.181634 18.134600 -8.495993 8.999078 -0.236788 -6.539533
lowerback -8.010420 2.665806 3.716075
upperback -1.049279 3.119721 4.131853
thorax 3.373887 1.575706 2.497616
lowerneck -17.378681 -7.068050 -15.977941
upperneck 16.262070 -8.989827 16.499010
head 9.292150 -3.692128 7.148955
rclavicle -0.000000 0.000000
rhumerus -40.822651 13.942830 -91.219597
rradius 58.478088
rwrist -29.964111
rhand -35.700279 -31.769650
rfingers 7.837522
rthumb -6.256624 -64.663719
lclavicle -0.000000 0.000000
lhumerus -55.992859 -10.919216 106.013382
lradius 29.364279
lwrist 8.835629
lhand -13.895200 -27.193651
lfingers 7.837522
lthumb 14.792690 5.306873
rfemur 11.623370 6.254666 34.683659
rtibia 0.000000
rfoot -13.939750 6.191757
rtoes -8.616245
lfemur -48.844398 -3.569632 -10.782398
ltibia 22.392151
lfoot -19.204350 17.143280
ltoes -17.374611
213
root 9.204514 18.115021 -8.330366 9.176002 -0.530423 -6.874604
lowerback -8.108749 2.723215 3.989205
upperback -1.149412 3.170332 4.208369
thorax 3.333803 1.602755 2.431517
lowerneck -17.441050 -7.038284 -15.911830
upperneck 16.459190 -8.952954 16.376360
head 9.353607 -3.678213 7.103261
rclavicle 0.000000 0.000000
rhumerus -40.911201 14.042710 -91.614601
rradius 58.341141
rwrist -29.692850
rhand -35.596443 -32.659111
rfingers 7.837522
rthumb -6.156392 -65.555817
lclavicle 0.000000 0.000000
lhumerus -56.078659 -10.424171 105.642563
lradius 29.132730
lwrist 8.101731
lhand -16.342920 -32.567589
lfingers 7.837522
lthumb 12.432750 0.075448
rfemur 12.066780 6.401450 34.929070
rtibia 0.000000
rfoot -13.928420 6.454173
rtoes -8.765680
lfemur -49.216309 -3.166757 -10.439672
ltibia 22.094379
lfoot -19.288059 16.581730
ltoes -16.721100
214
root 9.226294 18.097528 -8.169930 9.351969 -0.769833 -6.988113
lowerback -8.219651 2.774541 4.043743
upperback -1.198318 3.228522 4.235044
thorax 3.345672 1.631894 2.438766
lowerneck -17.519369 -7.003623 -15.907430
upperneck 16.530910 -8.891971 16.323120
head 9.378710 -3.650504 7.093119
rclavicle 0.000000 0.000000
rhumerus -41.099079 14.105631 -91.912697
rradius 58.381287
rwrist -29.398710
rhand -35.523289 -33.535480
rfingers 7.837522
rthumb -6.085706 -66.434059
lclavicle 0.000000 0.000000
lhumerus -56.220451 -10.565170 105.766983
lradius 28.923950
lwrist 7.949524
lhand -21.508520 -46.701710
lfingers 7.837522
lthumb 7.448243 -13.842840
rfemur 12.487639 6.467857 34.938641
rtibia 0.000000
rfoot -13.672450 6.697152
rtoes -9.275123
lfemur -49.653450 -3.036176 -10.300553
ltibia 22.088879
lfoot -19.098310 16.731659
ltoes -13.988151
215
root 9.238823 18.080151 -8.024489 9.479746 -1.099152 -7.079083
lowerback -8.141992 2.867348 4.020401
upperback -1.261854 3.362876 4.218159
thorax 3.234781 1.697806 2.441395
lowerneck -17.164949 -6.987728 -15.772680
upperneck 16.287590 -8.905523 16.234350
head 9.225864 -3.672449 7.033103
rclavicle -0.000000 -0.000000
rhumerus -41.601780 14.264359 -92.202553
rradius 58.757820
rwrist -29.447771
rhand -35.420990 -33.722481
rfingers 7.837522
rthumb -5.986981 -66.623589
lclavicle -0.000000 -0.000000
lhumerus -56.302513 -10.589425 105.698013
lradius 28.597469
lwrist 7.327474
lhand -21.883511 -48.431351
lfingers 7.837522
lthumb 7.086288 -15.561150
rfemur 12.893209 6.602035 34.969658
rtibia 0.000000
rfoot -13.631639 6.871568
rtoes -9.986856
lfemur -50.053963 -2.890558 -10.114555
ltibia 22.208561
lfoot -18.772270 17.467890
ltoes -13.491501
216
root 9.267005 18.068380 -7.834134 9.496058 -1.527625 -7.142212
lowerback -8.487446 3.012592 4.091890
upperback -1.122836 3.520209 4.201989
thorax 3.575088 1.778557 2.425467
lowerneck -16.872240 -6.980941 -15.820860
upperneck 15.887959 -8.904434 16.357880
head 9.049237 -3.678059 7.078775
rclavicle 0.000000 0.000000
rhumerus -41.970940 14.420340 -92.396370
rradius 59.107071
rwrist -29.530710
rhand -35.118710 -32.706192
rfingers 7.837522
rthumb -5.695063 -65.614670
lclavicle 0.000000 0.000000
lhumerus -56.126400 -10.726805 105.758949
lradius 28.081240
lwrist 6.955355
lhand -20.891750 -45.921371
lfingers 7.837522
lthumb 8.043662 -13.082410
rfemur 13.639891 6.818064 34.877918
rtibia -0.000000
rfoot -13.919400 7.059679
rtoes -10.997096
lfemur -50.016228 -2.517856 -10.256489
ltibia 22.341110
lfoot -18.655670 17.919771
ltoes -19.300930
217
root 9.292052 18.045830 -7.653580 9.533898 -1.727044 -7.224052
lowerback -8.839699 3.049794 4.178691
upperback -0.971112 3.530538 4.192727
thorax 3.934766 1.786631 2.394788
lowerneck -16.692390 -6.892677 -16.114010
upperneck 15.525950 -8.779650 16.786110
head 8.911264 -3.608517 7.293264
rclavicle 0.000000 0.000000
rhumerus -42.129448 14.648149 -92.705025
rradius 59.201233
rwrist -29.547649
rhand -34.692242 -31.364851
rfingers 7.837522
rthumb -5.283278 -64.283005
lclavicle 0.000000 0.000000
lhumerus -55.902660 -10.666007 105.582947
lradius 27.706360
lwrist 6.326606
lhand -18.528400 -40.675800
lfingers 7.837522
lthumb 10.324425 -7.927722
rfemur 14.302859 6.818361 34.845798
rtibia -0.000000
rfoot -14.085060 7.220620
rtoes -12.361580
lfemur -50.050991 -1.942424 -10.589327
ltibia 22.473221
lfoot -18.152750 17.573820
ltoes -23.991549
218
root 9.314822 18.018219 -7.479329 9.640289 -1.952335 -7.334932
lowerback -8.939359 3.019830 4.193530
upperback -1.046753 3.484745 4.235781
thorax 3.910401 1.763245 2.428800
lowerneck -16.684031 -6.799650 -16.187160
upperneck 15.735611 -8.656912 16.787319
head 8.960997 -3.553770 7.329201
rclavicle -0.000000 -0.000000
rhumerus -42.386627 15.019180 -93.128311
rradius 58.940529
rwrist -29.393431
rhand -34.721722 -31.670759
rfingers 7.837522
rthumb -5.311834 -64.588257
lclavicle -0.000000 -0.000000
lhumerus -56.160393 -10.335105 105.455788
lradius 27.562040
lwrist 5.797660
lhand -15.608560 -34.478951
lfingers 7.837522
lthumb 13.140929 -1.875951
rfemur 14.837350 6.863670 34.821819
rtibia 0.000000
rfoot -13.906750 7.489240
rtoes -11.559020
lfemur -50.137230 -1.200221 -10.906885
ltibia 22.724020
lfoot -17.692070 16.739140
ltoes -20.877670
219
root 9.337626 17.986099 -7.301404 9.684125 -2.279332 -7.472465
lowerback -8.843185 2.967052 4.123361
upperback -1.158795 3.429910 4.322285
thorax 3.732025 1.733468 2.541814
lowerneck -16.884010 -6.712486 -15.806450
upperneck 16.192110 -8.539618 16.235670
head 9.085395 -3.513774 7.091425
rclavicle 0.000000 0.000000
rhumerus -42.557571 15.370630 -93.584259
rradius 58.520000
rwrist -29.099951
rhand -35.399319 -33.584763
rfingers 7.837522
rthumb -5.966081 -66.486420
lclavicle 0.000000 0.000000
lhumerus -56.464870 -10.078376 105.445335
lradius 27.384281
lwrist 5.460433
lhand -13.176240 -29.289040
lfingers 7.837522
lthumb 15.485579 3.164491
rfemur 15.453570 6.996913 34.833813
rtibia 0.000000
rfoot -13.700610 7.691585
rtoes -9.787635
lfemur -50.147678 -0.346473 -11.208891
ltibia 23.008699
lfoot -17.062429 16.047680
ltoes -14.671030
220
root 9.362276 17.954420 -7.122709 9.704410 -2.697475 -7.649939
lowerback -8.828931 3.026584 4.192419
upperback -1.101606 3.500013 4.337003
thorax 3.785771 1.769361 2.527954
lowerneck -17.288040 -6.707976 -15.350280
upperneck 16.428610 -8.536694 15.839121
head 9.198431 -3.503599 6.873053
rclavicle -0.000000 -0.000000
rhumerus -42.705627 15.463799 -93.917450
rradius 58.347523
rwrist -28.955191
rhand -35.922810 -34.897171
rfingers 7.837522
rthumb -6.471509 -67.785301
lclavicle -0.000000 -0.000000
lhumerus -56.350910 -9.842107 105.040100
lradius 27.224339
lwrist 4.673031
lhand -11.954910 -27.037230
lfingers 7.837522
lthumb 16.662251 5.330930
rfemur 16.138430 7.218002 34.888371
rtibia -0.000000
rfoot -13.899710 7.849380
rtoes -10.167817
lfemur -50.167812 0.669480 -11.564630
ltibia 23.446390
lfoot -16.325871 15.440810
ltoes -11.500720
221
root 9.385322 17.911631 -6.950977 9.957596 -2.925769 -7.923333
lowerback -8.956421 3.128026 4.394104
upperback -1.167188 3.610244 4.371048
thorax 3.796925 1.825956 2.468422
lowerneck -17.296289 -6.735432 -15.511649
upperneck 16.326090 -8.587898 16.157129
head 9.196088 -3.509352 7.005306
rclavicle 0.000000 0.000000
rhumerus -43.137821 15.288790 -94.023705
rradius 58.333221
rwrist -28.738379
rhand -35.814346 -34.751091
rfingers 7.837522
rthumb -6.366756 -67.642189
lclavicle 0.000000 0.000000
lhumerus -55.745251 -8.202447 102.905006
lradius 26.598991
lwrist -1.322871
lhand -10.248074 -28.818350
lfingers 7.837522
lthumb 18.305981 3.418899
rfemur 16.585140 7.316672 35.040390
rtibia -0.000000
rfoot -14.140281 7.989091
rtoes -11.406560
lfemur -50.591309 1.532960 -11.752621
ltibia 24.214081
lfoot -16.424210 14.707991
ltoes -9.991817
222
root 9.406199 17.887541 -6.773283 10.157234 -3.084906 -8.022278
lowerback -9.053748 3.103265 4.343658
upperback -1.330054 3.582623 4.405137
thorax 3.677047 1.810072 2.527855
lowerneck -17.032949 -6.661270 -15.718120
upperneck 16.340611 -8.529883 16.455009
head 9.166520 -3.478453 7.159625
rclavicle 0.000000 0.000000
rhumerus -43.671432 15.251610 -94.221817
rradius 58.240601
rwrist -28.428070
rhand -35.453773 -34.370930
rfingers 7.837522
rthumb -6.018628 -67.271271
lclavicle 0.000000 0.000000
lhumerus -56.045769 -8.365412 103.013351
lradius 26.301550
lwrist -1.194941
lhand -10.500952 -29.454369
lfingers 7.837522
lthumb 18.062550 2.803163
rfemur 17.038229 7.317552 35.006618
rtibia -0.000000
rfoot -13.842510 8.037304
rtoes -12.556830
lfemur -50.869938 2.013198 -11.954470
ltibia 25.147541
lfoot -16.792820 14.298240
ltoes -9.013730
223
root 9.433831 17.858940 -6.576537 10.196263 -3.548336 -8.092392
lowerback -9.144630 3.117290 4.278890
upperback -1.306151 3.598650 4.414960
thorax 3.748250 1.817464 2.582151
lowerneck -17.257240 -6.612947 -15.458740
upperneck 16.592400 -8.488623 16.280991
head 9.264750 -3.448786 7.062825
rclavicle -0.000000 -0.000000
rhumerus -43.743481 15.285490 -94.494507
rradius 57.827991
rwrist -28.081570
rhand -35.070309 -34.204941
rfingers 7.837522
rthumb -5.648335 -67.114517
lclavicle -0.000000 -0.000000
lhumerus -56.196690 -8.637871 103.223450
lradius 26.028311
lwrist -0.598850
lhand -10.498400 -29.247019
lfingers 7.837522
lthumb 18.064972 3.010315
rfemur 17.756859 7.582597 34.882431
rtibia 0.000000
rfoot -13.389200 8.112687
rtoes -13.229700
lfemur -50.837708 2.722368 -12.257299
ltibia 26.218170
lfoot -16.382299 14.186370
ltoes -12.165560
